<svg xmlns="http://www.w3.org/2000/svg" viewBox="0 0 480 480" width="480px" height="480px">
  <defs>
		<style>.cls-1{fill: hsla(250, 0%, 96%, 1);stroke: none;}
			.cls-1,.cls-2,.cls-3,.cls-4{stroke-miterlimit: 10;}
			.cls-2{fill: hsla(250, 80%, 40%, 1);}.cls-2,.cls-3{stroke: hsla(250, 0%, 96%, 0.7);}
			.cls-2,.cls-3,.cls-4{stroke-width: 8px;}.cls-3{fill: hsla(250, 0%, 96%, 1);}
			.cls-4{fill: hsla(250, 80%, 40%, 1);stroke: hsla(250, 0%, 96%, 0.7);}
		</style>
  </defs>
  <g id="Capa_2" data-name="Capa 2">
    <g id="Capa_2-2" data-name="Capa 2">
      <rect class="cls-1" x="0" y="0" width="480" height="480" rx="0"/>
      <rect class="cls-2" x="40" y="20" width="240" height="440" rx="40"/>
      <rect class="cls-3" x="80" y="60" width="160" height="330" rx="20"/>
      <circle class="cls-3" cx="164" cy="425" r="20"/>
      <ellipse class="cls-4" cx="327.41" cy="232" rx="59"/>
      <path class="cls-4" d="M437.3,390c-2.59-41.06-50.78-73.79-109.89-73.79s-107.3,32.73-109.89,73.79a13.84,13.84,0,0,0-.11,1.59c0,6,4.16,10.85,9.28,10.85H428.13c5.12,0,9.28-4.86,9.28-10.85A11.9,11.9,0,0,0,437.3,390Z"/>
    </g>
  </g>
</svg>
